# xmcd
#
# Track frame offsets: 
#        150
#        15093
#        30198
#        43333
#        58728
#        73793
#        90990
#        105130
#        122680
#        135443
#
# Disc length: 1999 seconds
#
# Revision: 4
# Processed by: cddbd v1.5.2PL0 Copyright (c) Steve Scherf et al.
# Submitted via: ExactAudioCopy v0.95b4
#
DISCID=6e07cd0a
DTITLE=Desert Rose Band - Life Goes On
DYEAR=1993
DGENRE=Country
TTITLE0=What About Love
TTITLE1=Night After Night
TTITLE2=Walk On By
TTITLE3=Love Refugees
TTITLE4=Life Goes On
TTITLE5=That's Not The Way
TTITLE6=Till It's Over
TTITLE7=Hold On
TTITLE8=A Little Rain
TTITLE9=Throw Me A Lifeline
EXTD=
EXTT0=
EXTT1=
EXTT2=
EXTT3=
EXTT4=
EXTT5=
EXTT6=
EXTT7=
EXTT8=
EXTT9=
PLAYORDER=
